<?xml version="1.0" encoding="UTF-8"?>
<svg width="32px" height="32px" viewBox="0 0 22 22" version="1.1" xmlns="http://www.w3.org/2000/svg" xmlns:xlink="http://www.w3.org/1999/xlink">
    <!-- Generator: Sketch 57.1 (83088) - https://sketch.com -->
    <title>Anomaly detection</title>
    <desc>Created with Sketch.</desc>
    <g id="Anomaly-detection" stroke="none" stroke-width="1" fill="none" fill-rule="evenodd">
        <g id="Group" transform="translate(1.000000, 1.000000)" fill-rule="nonzero">
            <path d="M3.00064183,14 C4.65743352,14 6.00052856,15.3431458 6.00052856,17 C6.00052856,18.6568542 4.65743352,20 3.00064183,20 C1.34385013,20 0.00075509009,18.6568542 0.00075509009,17 C0.00075509009,15.3431458 1.34385013,14 3.00064183,14 Z M10.0003775,14 C11.6571692,14 13.0002643,15.3431458 13.0002643,17 C13.0002643,18.6568542 11.6571692,20 10.0003775,20 C8.34358585,20 7.00049081,18.6568542 7.00049081,17 C7.00049081,15.3431458 8.34358585,14 10.0003775,14 Z M17.0001133,14 C18.656905,14 20,15.3431458 20,17 C20,18.6568542 18.656905,20 17.0001133,20 C15.3433216,20 14.0002265,18.6568542 14.0002265,17 C14.0002265,15.3431458 15.3433216,14 17.0001133,14 Z M3.00064183,15 C1.89611403,15 1.00071734,15.8954305 1.00071734,17 C1.00071734,18.1045695 1.89611403,19 3.00064183,19 C4.10516962,19 5.00056632,18.1045695 5.00056632,17 C5.00056632,15.8954305 4.10516962,15 3.00064183,15 Z M10.0003775,15 C8.89584975,15 8.00045305,15.8954305 8.00045305,17 C8.00045305,18.1045695 8.89584975,19 10.0003775,19 C11.1049053,19 12.000302,18.1045695 12.000302,17 C12.000302,15.8954305 11.1049053,15 10.0003775,15 Z M17.0001133,15 C15.8955855,15 15.0001888,15.8954305 15.0001888,17 C15.0001888,18.1045695 15.8955855,19 17.0001133,19 C18.1046411,19 19.0000378,18.1045695 19.0000378,17 C19.0000378,15.8954305 18.1046411,15 17.0001133,15 Z M10.0003775,7 C11.6571692,7 13.0002643,8.34314575 13.0002643,10 C13.0002643,11.6568542 11.6571692,13 10.0003775,13 C8.34358585,13 7.00049081,11.6568542 7.00049081,10 C7.00049081,8.34314575 8.34358585,7 10.0003775,7 Z M17.0001133,7 C18.656905,7 20,8.34314575 20,10 C20,11.6568542 18.656905,13 17.0001133,13 C15.3433216,13 14.0002265,11.6568542 14.0002265,10 C14.0002265,8.34314575 15.3433216,7 17.0001133,7 Z M3.68217214,7.4974938 L6.43206832,12.1974938 C6.62709149,12.5308187 6.38670359,12.95 6.00052856,12.95 L0.500736213,12.95 C0.11456119,12.95 -0.125826713,12.5308187 0.0691964604,12.1974938 L2.81909264,7.4974938 C3.01216562,7.16750207 3.48909916,7.16750207 3.68217214,7.4974938 Z M10.0003775,8 C8.89584975,8 8.00045305,8.8954305 8.00045305,10 C8.00045305,11.1045695 8.89584975,12 10.0003775,12 C11.1049053,12 12.000302,11.1045695 12.000302,10 C12.000302,8.8954305 11.1049053,8 10.0003775,8 Z M17.0001133,8 C15.8955855,8 15.0001888,8.8954305 15.0001888,10 C15.0001888,11.1045695 15.8955855,12 17.0001133,12 C18.1046411,12 19.0000378,11.1045695 19.0000378,10 C19.0000378,8.8954305 18.1046411,8 17.0001133,8 Z M3.00064183,0 C4.65743352,0 6.00052856,1.34314575 6.00052856,3 C6.00052856,4.65685425 4.65743352,6 3.00064183,6 C1.34385013,6 0.00075509009,4.65685425 0.00075509009,3 C0.00075509009,1.34314575 1.34385013,0 3.00064183,0 Z M10.0003775,0 C11.6571692,0 13.0002643,1.34314575 13.0002643,3 C13.0002643,4.65685425 11.6571692,6 10.0003775,6 C8.34358585,6 7.00049081,4.65685425 7.00049081,3 C7.00049081,1.34314575 8.34358585,0 10.0003775,0 Z M17.0001133,0 C18.656905,0 20,1.34314575 20,3 C20,4.65685425 18.656905,6 17.0001133,6 C15.3433216,6 14.0002265,4.65685425 14.0002265,3 C14.0002265,1.34314575 15.3433216,0 17.0001133,0 Z M3.00064183,1 C1.89611403,1 1.00071734,1.8954305 1.00071734,3 C1.00071734,4.1045695 1.89611403,5 3.00064183,5 C4.10516962,5 5.00056632,4.1045695 5.00056632,3 C5.00056632,1.8954305 4.10516962,1 3.00064183,1 Z M10.0003775,1 C8.89584975,1 8.00045305,1.8954305 8.00045305,3 C8.00045305,4.1045695 8.89584975,5 10.0003775,5 C11.1049053,5 12.000302,4.1045695 12.000302,3 C12.000302,1.8954305 11.1049053,1 10.0003775,1 Z M17.0001133,1 C15.8955855,1 15.0001888,1.8954305 15.0001888,3 C15.0001888,4.1045695 15.8955855,5 17.0001133,5 C18.1046411,5 19.0000378,4.1045695 19.0000378,3 C19.0000378,1.8954305 18.1046411,1 17.0001133,1 Z" id="Combined-Shape" fill="#333741"></path>
            <path d="M3.03535529,7.26051979 C3.24323959,6.91316007 3.75676041,6.91316007 3.96464471,7.26051979 L6.92549523,12.2078882 C7.13547933,12.5587565 6.87665041,13 6.46085053,13 L0.539149475,13 C0.123349587,13 -0.135479329,12.5587565 0.0745047678,12.2078882 L3.03535529,7.26051979 Z" id="Triangle" fill="#007D73"></path>
        </g>
    </g>
</svg>